#!OML:ASF F:\VICON\USERDATA\INSTALL\rory3\rory3.ASF
:FULLY-SPECIFIED
:DEGREES
45
root 0.5743307811329674 18.128913076663867 10.960204182858545 -4.094693201632472 -1.9121264120912282 -6.795456665599794
lfemur -26.71653953740632 4.301716928755097 -12.23805143318353
ltibia 69.30465931637247
lfoot -6.151440488509795 -2.567289950251315
ltoes -8.054010504779349
rfemur -3.9261847695110603 6.680578146937552 34.355391105334775
rtibia 26.890888781186334
rfoot -17.73341338802278 -7.982845592929078
rtoes 11.526501612381807
lowerback 10.612866414697182 0.8408944622905404 4.744705286306906
upperback 0.4571543038245604 1.82919337057552 2.5280904844329526
thorax -5.42015846437734 0.8122134234392495 -0.47813166516055416
lowerneck -15.937356901720841 -3.114527377928245 -1.5027105193562469
upperneck 21.325631273981486 -4.0555368406510555 0.4356232868353591
head 9.375564712470478 -1.9676765689449762 -0.12607021644963634
lclavicle -1.2804033436473647e-15 -1.0573904742651937e-15
lhumerus -33.504088541507585 1.7496063813339884 82.4366170634901
lradius 22.634216584793464
lwrist 4.9755833960940645
lhand -29.17980631262722 22.140717098130608
lfingers 7.125020000000056
lthumb -2.524954453803864 52.1141888549825
rclavicle -1.2804033436473647e-15 -1.0573904742651937e-15
rhumerus -26.628308473660887 -17.31099128449803 -79.74963941632423
rradius 22.462108187098337
rwrist 3.1799104200450206
rhand -17.36965928505739 29.75519663144857
rfingers 7.125020000000056
rthumb 8.87915663301862 -8.902596182830754
46
root 0.5730983236934408 18.065160123126294 11.703923736890921 -3.433631056775976 -2.6819995962238443 -7.414454115518463
lfemur -29.270686311897318 3.414924586553373 -11.484226280173374
ltibia 60.09465175280813
lfoot -7.263090703883135 0.7649398384501334
ltoes -6.7213846255824
rfemur -1.284672678380316 7.011176278390154 35.174490011145494
rtibia 25.786345333112184
rfoot -19.755777027075354 -8.370568799547788
rtoes 11.07995702458405
lowerback 10.6148363686438 1.2039561741980476 5.677491957110761
upperback 0.4143217121667085 2.42307976898311 2.4452144511587077
thorax -5.4120076692683075 1.0775534308374957 -1.1831405388346212
lowerneck -16.2187674367501 -3.1157451397889333 -1.4411996786631587
upperneck 20.92682303863187 -4.0616834651968805 0.43605037282584314
head 9.290091912181493 -1.9652265534054285 -0.1379325577418019
lclavicle -1.2653961245207111e-15 -1.0457703616573703e-15
lhumerus -34.4490943441845 2.5672671263093907 82.35637108287881
lradius 22.398414300534846
lwrist 5.199046008967892
lhand -29.317022662171198 21.739579011923365
lfingers 7.125020000000056
lthumb -2.657479917460492 51.711131698558795
rclavicle -1.2653961245207111e-15 -1.0457703616573703e-15
rhumerus -24.444034082430704 -14.377621670145949 -80.86764056790008
rradius 24.617830106828926
rwrist 0.998559726846854
rhand -17.522701390902288 29.99045831304485
rfingers 7.125020000000056
rthumb 8.731400623147493 -8.484651931386493
47
root 0.5775197876396971 17.99721825131983 12.536187459720692 -2.605183729219292 -3.3271707577512815 -7.979176490327623
lfemur -30.348596201642525 1.4681631474847598 -10.261196171350573
ltibia 48.27359041748446
lfoot -7.414201277839606 4.078986701339333
ltoes -5.576958020207088
rfemur 1.5524431265938485 7.301513413473955 35.94266049750273
rtibia 24.080393907077532
rfoot -21.49888430776222 -8.747209871713576
rtoes 9.924947292292574
lowerback 10.490215488897709 1.533084595521716 6.504196816934855
upperback 0.3694392372356688 2.950521503455353 2.4175565014452913
thorax -5.316099831869181 1.3152853356053482 -1.7279759114565527
lowerneck -16.55625397404517 -3.1054254335031675 -1.3758231048397875
upperneck 20.51251793233666 -4.049371922573952 0.4502877675142478
head 9.210473810232688 -1.954487741418741 -0.14496084389795905
lclavicle -1.1106628413390984e-15 -9.259599873999253e-16
lhumerus -35.12676648713934 3.4839117572087908 82.27985020991278
lradius 22.141211693662918
lwrist 5.209744354638401
lhand -29.439691748070747 21.425794895803925
lfingers 7.125020000000056
lthumb -2.7759535440432055 51.39612743988222
rclavicle -1.1106628413390984e-15 -9.259599873999253e-16
rhumerus -22.314277857570136 -11.924229847851638 -81.47983730378598
rradius 26.65378366140311
rwrist -0.6854571430106033
rhand -17.639158792008267 30.246304845479763
rfingers 7.125020000000056
rthumb 8.61897944390673 -7.819309319382012
48
root 0.5790596539924621 17.921364906490254 13.13436965412727 -1.7617527641107569 -3.934523543964207 -8.473051010209314
lfemur -30.426928786570134 -1.2182160311255683 -8.826806257113459
ltibia 35.122279882409806
lfoot -7.403125748125513 6.900070640804954
ltoes -5.296221071450134
rfemur 4.396373395760955 7.501905903725563 36.51745356770202
rtibia 21.99580008194332
rfoot -23.16588849975575 -8.978839054594214
rtoes 7.702426606275577
lowerback 10.22134304911237 1.8251924045300307 7.103145614099075
upperback 0.3099832617575103 3.3929704562557075 2.4054019964173983
thorax -5.183383070230405 1.5194605817959692 -2.134413091396866
lowerneck -16.88510103452295 -3.1050602864444175 -1.3168133322021274
upperneck 20.121643413403458 -4.0560628212631284 0.463862406159105
head 9.137852490599297 -1.9510375328767946 -0.15236814932697262
lclavicle -1.1106997436461166e-15 -9.259886126274296e-16
lhumerus -35.80438987387781 4.5782536731782315 82.09073890076544
lradius 21.322766946068754
lwrist 4.9116290086896495
lhand -29.50487875979851 21.272841050205606
lfingers 7.125020000000056
lthumb -2.8389038197152927 51.243395752541225
rclavicle -1.1106997436461166e-15 -9.259886126274296e-16
rhumerus -20.476859833575034 -10.28055172350823 -81.85836442512358
rradius 28.049846648094352
rwrist -1.8033595520442458
rhand -17.74277069252559 30.43880735833537
rfingers 7.125020000000056
rthumb 8.51898387929181 -7.265577862625592
